<?xml version="1.0" encoding="utf-8"?>
<!-- Generator: Adobe Illustrator 24.0.1, SVG Export Plug-In . SVG Version: 6.00 Build 0)  -->
<svg version="1.1" xmlns="http://www.w3.org/2000/svg" xmlns:xlink="http://www.w3.org/1999/xlink" x="0px" y="0px"
	 viewBox="0 0 234.5 233.2" style="enable-background:new 0 0 234.5 233.2;" xml:space="preserve">
<style type="text/css">
	.st0{fill:#E8EBF5;}
	.st1{fill:#A7BCCE;}
	.st2{fill:#BBCEE1;}
	.st3{fill:#0F4463;}
	.st4{fill:#0B3B56;}
	.st5{fill:#1F5E77;}
	.st6{fill:#07304B;}
	.st7{fill:url(#SVGID_1_);}
	.st8{fill:#F5D012;}
	.st9{fill:#EDF0F8;}
	.st10{fill:#50E85E;}
	.st11{fill:#ED5561;}
	.st12{fill:#F0CEC9;}
	.st13{fill:#FFFBF0;}
	.st14{fill:#F5DDD8;}
	.st15{fill:#DFBAB8;}
	.st16{fill:#FFFFFF;}
	.st17{fill:#9D4D36;}
	.st18{fill:#F4C5A2;}
	.st19{fill:#933E31;}
	.st20{fill:#1C75BC;}
	.st21{fill:#2A87C6;}
	.st22{fill:#FED4BD;}
	.st23{fill:#DE495A;}
</style>
<g id="table" class="table" style="transform: translateX(100%);">
	<path class="st0" d="M11.3,86l81.4-47.2c3.4-2,7.7-2,11.1,0L232.1,113c2.3,1.4,3.2,4.3,1.8,6.7c-0.4,0.8-1.1,1.4-1.8,1.8
		l-79.6,46.2c-4.1,2.4-9.2,2.4-13.3,0l-128-74c-2.1-1.2-2.8-3.9-1.6-6C10.1,87,10.6,86.4,11.3,86z"/>
	<path class="st1" d="M11.4,93.6l128,74c4.1,2.4,9.2,2.4,13.3,0l79.6-46.2c1.5-0.9,2.4-2.4,2.4-4.2v6.2l0,0c0,1.7-0.9,3.3-2.4,4.2
		l-79.6,46.2c-4.1,2.4-9.2,2.4-13.3,0l-128-74C10,99,9.1,97.5,9.1,95.9l0,0v-6.1C9.2,91.4,10,92.9,11.4,93.6z"/>
	<path class="st2" d="M11.4,93.6l128,74c1.8,1.1,3.9,1.7,6.1,1.7v6.1c-2.1-0.1-4.2-0.7-6.1-1.7l-128-74C10,99,9.1,97.5,9.1,95.9l0,0
		v-6.1C9.1,91.4,10,92.8,11.4,93.6z"/>
	<path class="st3" d="M71.5,103.1l13.8-8c0.6-0.4,1.4-0.4,2.1,0l42.7,24.7c0.4,0.3,0.6,0.8,0.3,1.3c-0.1,0.1-0.2,0.2-0.3,0.3
		l-13.5,7.8c-0.8,0.4-1.7,0.4-2.5,0l-42.6-24.6c-0.4-0.2-0.5-0.7-0.3-1.2C71.3,103.3,71.4,103.2,71.5,103.1z"/>
	<path class="st4" d="M71.5,104.5l42.6,24.6c0.8,0.4,1.7,0.4,2.5,0l13.5-7.8c0.3-0.2,0.5-0.5,0.5-0.8v1.6l0,0c0,0.3-0.2,0.6-0.5,0.8
		l-13.5,7.8c-0.8,0.4-1.7,0.4-2.5,0l-42.6-24.6c-0.3-0.1-0.4-0.4-0.4-0.7l0,0v-1.6C71.1,104.1,71.2,104.4,71.5,104.5z"/>
	<polygon class="st5" points="85.2,97.3 86.9,96.3 88.9,97.5 87.1,98.5 	"/>
	<polygon class="st5" points="87.6,98.8 89.3,97.7 91.3,98.9 89.6,99.9 	"/>
	<polygon class="st5" points="90.1,100.2 91.8,99.2 93.8,100.3 92,101.3 	"/>
	<polygon class="st5" points="92.5,101.6 94.2,100.6 96.2,101.7 94.5,102.7 	"/>
	<polygon class="st5" points="95,103 96.7,102 98.7,103.1 96.9,104.1 	"/>
	<polygon class="st5" points="97.4,104.4 99.2,103.4 101.1,104.5 99.4,105.5 	"/>
	<polygon class="st5" points="99.9,105.8 101.6,104.8 103.6,105.9 101.8,106.9 	"/>
	<polygon class="st5" points="102.3,107.2 104.1,106.2 106,107.4 104.3,108.4 	"/>
	<polygon class="st5" points="104.8,108.6 106.5,107.6 108.5,108.8 106.7,109.8 	"/>
	<polygon class="st5" points="107.2,110 109,109 110.9,110.2 109.2,111.2 	"/>
	<polygon class="st5" points="109.7,111.5 111.4,110.5 113.4,111.6 111.7,112.6 	"/>
	<polygon class="st5" points="112.1,112.9 113.9,111.9 115.8,113 114.1,114 	"/>
	<polygon class="st5" points="116.3,113.3 118.3,114.4 116.6,115.4 114.6,114.3 	"/>
	<polygon class="st5" points="84.9,99.8 82.9,98.6 84.7,97.6 86.6,98.8 	"/>
	<polygon class="st5" points="89.1,100.2 87.3,101.2 85.4,100 87.1,99 	"/>
	<polygon class="st5" points="91.5,101.6 89.8,102.6 87.8,101.5 89.6,100.5 	"/>
	<polygon class="st5" points="94,103 92.2,104 90.3,102.9 92,101.9 	"/>
	<polygon class="st5" points="96.4,104.4 94.7,105.4 92.7,104.3 94.5,103.3 	"/>
	<polygon class="st5" points="98.9,105.8 97.2,106.8 95.2,105.7 96.9,104.7 	"/>
	<polygon class="st5" points="101.3,107.2 99.6,108.2 97.6,107.1 99.4,106.1 	"/>
	<polygon class="st5" points="103.8,108.6 102.1,109.6 100.1,108.5 101.8,107.5 	"/>
	<polygon class="st5" points="106.2,110.1 104.5,111.1 102.5,109.9 104.3,108.9 	"/>
	<polygon class="st5" points="108.7,111.5 107,112.5 105,111.3 106.7,110.3 	"/>
	<polygon class="st5" points="111.2,112.9 109.4,113.9 107.4,112.8 109.2,111.8 	"/>
	<polygon class="st5" points="113.6,114.3 111.9,115.3 109.9,114.2 111.6,113.2 	"/>
	<polygon class="st5" points="114.1,114.6 116.1,115.7 114.3,116.7 112.4,115.6 	"/>
	<polygon class="st5" points="82.7,101.1 80.7,99.9 82.4,98.9 84.4,100.1 	"/>
	<polygon class="st5" points="86.8,101.5 85.1,102.5 83.1,101.3 84.9,100.3 	"/>
	<polygon class="st5" points="85.6,102.8 87.3,101.8 89.3,102.9 87.6,103.9 	"/>
	<polygon class="st5" points="91.7,104.3 90,105.3 88,104.2 89.8,103.2 	"/>
	<polygon class="st5" points="94.2,105.7 92.5,106.7 90.5,105.6 92.2,104.6 	"/>
	<polygon class="st5" points="96.6,107.1 94.9,108.1 92.9,107 94.7,106 	"/>
	<polygon class="st5" points="99.1,108.5 97.4,109.5 95.4,108.4 97.1,107.4 	"/>
	<polygon class="st5" points="101.6,110 99.8,111 97.8,109.8 99.6,108.8 	"/>
	<polygon class="st5" points="104,111.4 102.3,112.4 100.3,111.2 102,110.2 	"/>
	<polygon class="st5" points="106.5,112.8 104.7,113.8 102.8,112.6 104.5,111.6 	"/>
	<polygon class="st5" points="108.9,114.2 107.2,115.2 105.2,114 106.9,113 	"/>
	<polygon class="st5" points="107.7,115.5 109.4,114.5 111.4,115.6 109.6,116.6 	"/>
	<polygon class="st5" points="111.8,115.9 113.8,117 112.1,118 110.1,116.9 	"/>
	<polygon class="st5" points="80.4,102.4 78.4,101.2 80.2,100.2 82.1,101.4 	"/>
	<polygon class="st5" points="80.9,102.6 82.6,101.6 84.6,102.8 82.9,103.8 	"/>
	<polygon class="st5" points="83.3,104 85.1,103 87,104.2 85.3,105.2 	"/>
	<polygon class="st5" points="85.8,105.5 87.5,104.5 89.5,105.6 87.8,106.6 	"/>
	<polygon class="st5" points="88.2,106.9 90,105.9 92,107 90.2,108 	"/>
	<polygon class="st5" points="90.7,108.3 92.4,107.3 94.4,108.4 92.7,109.4 	"/>
	<polygon class="st5" points="93.2,109.7 94.9,108.7 96.9,109.8 95.1,110.8 	"/>
	<polygon class="st5" points="95.6,111.1 97.3,110.1 99.3,111.2 97.6,112.2 	"/>
	<polygon class="st5" points="98.1,112.5 99.8,111.5 101.8,112.7 100,113.7 	"/>
	<polygon class="st5" points="100.5,113.9 102.2,112.9 104.2,114.1 102.5,115.1 	"/>
	<polygon class="st5" points="103,115.4 104.7,114.3 106.7,115.5 104.9,116.5 	"/>
	<polygon class="st5" points="105.4,116.8 107.2,115.8 109.1,116.9 107.4,117.9 	"/>
	<polygon class="st5" points="109.6,117.2 111.6,118.3 109.8,119.3 107.9,118.2 	"/>
	<polygon class="st5" points="78.2,103.7 76.2,102.5 77.9,101.5 79.9,102.7 	"/>
	<polygon class="st5" points="78.6,103.9 80.4,102.9 82.4,104.1 80.6,105.1 	"/>
	<polygon class="st5" points="81.1,105.4 82.8,104.4 84.8,105.5 83.1,106.5 	"/>
	<polygon class="st5" points="83.6,106.8 85.3,105.8 87.3,106.9 85.5,107.9 	"/>
	<polygon class="st5" points="86,108.2 87.7,107.2 89.7,108.3 88,109.3 	"/>
	<polygon class="st5" points="88.5,109.6 90.2,108.6 92.2,109.7 90.4,110.7 	"/>
	<polygon class="st5" points="90.9,111 92.7,110 94.6,111.1 92.9,112.1 	"/>
	<polygon class="st5" points="93.4,112.4 95.1,111.4 97.1,112.5 95.3,113.5 	"/>
	<polygon class="st5" points="95.8,113.8 97.6,112.8 99.5,114 97.8,115 	"/>
	<polygon class="st5" points="98.3,115.2 100,114.2 102,115.4 100.2,116.4 	"/>
	<polygon class="st5" points="100.7,116.6 102.5,115.6 104.4,116.8 102.7,117.8 	"/>
	<polygon class="st5" points="103.2,118.1 104.9,117 106.9,118.2 105.2,119.2 	"/>
	<polygon class="st5" points="107.4,118.5 109.3,119.6 107.6,120.6 105.6,119.5 	"/>
	<polygon class="st5" points="75.7,102.8 77.7,104 75.9,105 74,103.8 	"/>
	<polygon class="st5" points="80.1,105.4 78.4,106.4 76.4,105.2 78.1,104.2 	"/>
	<polygon class="st5" points="82.6,106.8 80.8,107.8 78.9,106.6 80.6,105.6 	"/>
	<polygon class="st5" points="85,108.2 83.3,109.2 81.3,108.1 83.1,107 	"/>
	<polygon class="st5" points="87.5,109.6 85.7,110.6 83.8,109.5 85.5,108.5 	"/>
	<polygon class="st5" points="89.9,111 88.2,112 86.2,110.9 88,109.9 	"/>
	<polygon class="st5" points="90.4,111.3 92.9,112.7 92.9,112.7 93.3,113 95.3,114.1 95.3,114.1 96.3,114.7 97.8,115.5 97.8,115.5 
		99.3,116.4 102.2,118.1 100.5,119.1 97.5,117.3 96,116.5 96,116.5 94.6,115.7 93.6,115.1 93.6,115.1 91.7,114 91.1,113.7 
		91.1,113.7 88.7,112.3 	"/>
	<polygon class="st5" points="104.6,119.5 102.9,120.5 100.9,119.4 102.7,118.4 	"/>
	<polygon class="st5" points="107.1,120.9 105.4,121.9 103.4,120.8 105.1,119.8 	"/>
	<polygon class="st5" points="119.5,117.1 121.2,116.1 123.2,117.2 121.5,118.2 	"/>
	<polygon class="st5" points="122,118.5 123.7,117.5 125.7,118.6 123.9,119.6 	"/>
	<polygon class="st5" points="124.4,119.9 126.1,118.9 128.1,120.1 126.4,121.1 	"/>
	<polygon class="st5" points="121,118.5 119.2,119.5 117.3,118.4 119,117.4 	"/>
	<polygon class="st5" points="123.4,119.9 121.7,120.9 119.7,119.8 121.4,118.8 	"/>
	<polygon class="st5" points="125.9,121.4 124.1,122.4 122.2,121.2 123.9,120.2 	"/>
	<polygon class="st5" points="118.7,119.8 117,120.8 115,119.7 116.7,118.7 	"/>
	<polygon class="st5" points="121.2,121.2 119.4,122.2 117.5,121.1 119.2,120.1 	"/>
	<polygon class="st5" points="123.6,122.6 121.9,123.6 119.9,122.5 121.7,121.5 	"/>
	<polygon class="st5" points="112.8,121 114.5,120 116.5,121.1 114.7,122.1 	"/>
	<polygon class="st5" points="115.2,122.4 117,121.4 118.9,122.5 117.2,123.5 	"/>
	<polygon class="st5" points="117.7,123.8 119.4,122.8 121.4,124 119.7,125 	"/>
	<polygon class="st5" points="110.5,122.3 112.3,121.3 114.2,122.4 112.5,123.4 	"/>
	<polygon class="st5" points="113,123.7 114.7,122.7 116.7,123.8 115,124.8 	"/>
	<polygon class="st5" points="115.4,125.1 117.2,124.1 119.2,125.2 117.4,126.2 	"/>
	<polygon class="st5" points="112,123.7 110.3,124.7 108.3,123.6 110,122.6 	"/>
	<polygon class="st5" points="114.5,125.1 112.7,126.1 110.8,125 112.5,124 	"/>
	<path class="st5" d="M102.2,89.8l13.6-7.9c0.6-0.3,1.3-0.3,1.9,0l32.3,18.6c0.4,0.2,0.5,0.7,0.3,1.1c-0.1,0.1-0.2,0.2-0.3,0.3
		l-13.3,7.7c-0.7,0.4-1.5,0.4-2.2,0l-32.2-18.6c-0.3-0.2-0.5-0.7-0.2-1C102,90,102.1,89.9,102.2,89.8z"/>
	<path class="st6" d="M102.2,91.1l32.2,18.6c0.7,0.4,1.5,0.4,2.2,0l13.3-7.7c0.2-0.1,0.4-0.4,0.4-0.7v1.7l0,0c0,0.3-0.2,0.6-0.4,0.7
		l-13.3,7.6c-0.7,0.4-1.5,0.4-2.2,0l-32.2-18.6c-0.2-0.1-0.4-0.4-0.4-0.6l0,0v-1.6C101.8,90.7,101.9,91,102.2,91.1z"/>
	<path class="st4" d="M102.2,91.1l32.2,18.6c0.3,0.2,0.6,0.3,1,0.3v1.7c-0.4,0-0.7-0.1-1-0.3l-32.2-18.6c-0.2-0.1-0.4-0.4-0.4-0.6
		l0,0v-1.6C101.8,90.7,101.9,91,102.2,91.1z"/>
	<polygon class="st3" points="137.4,91.1 112.4,76.6 112.4,89 137.4,103.5 	"/>
	<polygon class="st6" points="115.8,74.6 112.4,76.6 137.4,91.1 140.9,89.1 	"/>
	<polygon class="st6" points="140.9,89.1 137.4,91.1 137.4,103.5 140.9,101.5 	"/>
	
		<linearGradient id="SVGID_1_" gradientUnits="userSpaceOnUse" x1="115.2036" y1="139.9255" x2="139.1908" y2="218.8183" gradientTransform="matrix(1 0 0 -1 0 236)">
		<stop  offset="0" style="stop-color:#1C75BC"/>
		<stop  offset="0.28" style="stop-color:#2077BC"/>
		<stop  offset="0.54" style="stop-color:#2B7EBC"/>
		<stop  offset="0.8" style="stop-color:#3E88BC"/>
		<stop  offset="1" style="stop-color:#5394BC"/>
	</linearGradient>
	<polygon class="st7" points="87,13.4 163.2,57.6 163.2,113.6 87,69.3 	"/>
	<polygon class="st6" points="163.2,57.6 165.7,56 165.7,112.1 163.2,113.6 	"/>
	<polygon class="st5" points="87,13.4 89.6,11.9 165.7,56 163.2,57.6 	"/>
	<path class="st4" d="M87,13.4v55.9l76.2,44.4V57.6L87,13.4z M161.4,110.5L88.8,68.3V16.5l72.6,42.1V110.5z"/>
	<polygon class="st8" points="96.5,25 96.5,26.5 102.7,30.1 102.7,28.6 	"/>
	<polygon class="st9" points="96.5,27.7 96.5,29.2 102.7,32.8 102.7,31.3 	"/>
	<polygon class="st9" points="96.5,30.4 96.5,31.9 102.7,35.5 102.7,34 	"/>
	<polygon class="st9" points="143.6,61.8 143.6,60.4 105.1,38.1 105.1,39.6 	"/>
	<polygon class="st9" points="96.5,33.2 96.5,34.6 102.7,38.3 102.7,36.8 	"/>
	<polygon class="st9" points="96.5,35.9 96.5,37.4 102.7,41 102.7,39.5 	"/>
	<polygon class="st10" points="143.6,64.5 143.6,63.1 105.1,40.8 105.1,42.3 	"/>
	<polygon class="st9" points="96.5,44 96.5,45.5 102.7,49.1 102.7,47.6 	"/>
	<polygon class="st8" points="96.5,46.7 96.5,48.2 102.7,51.8 102.7,50.3 	"/>
	<polygon class="st9" points="96.5,57.6 96.5,59.1 102.7,62.7 102.7,61.2 	"/>
	<polygon class="st9" points="96.5,60.3 96.5,61.8 102.7,65.4 102.7,63.9 	"/>
	<polygon class="st10" points="129.4,79.3 105.1,65.3 105.1,66.8 129.4,80.8 	"/>
	<polygon class="st9" points="130.7,80 130.7,81.5 143.6,89 143.6,87.5 	"/>
	<polygon class="st9" points="117.3,69.6 105.1,62.6 105.1,64 117.3,71.1 	"/>
	<polygon class="st9" points="118.6,70.4 118.6,71.8 143.6,86.3 143.6,84.8 	"/>
	<polygon class="st9" points="140.3,74.7 140.3,76.2 143.6,78.1 143.6,76.6 	"/>
	<polygon class="st11" points="122.4,61.7 105.1,51.7 105.1,53.2 122.4,63.2 	"/>
	<polygon class="st9" points="115.3,35.9 105.1,30 105.1,31.4 115.3,37.4 	"/>
	<polygon class="st9" points="132.1,45.5 116.6,36.6 116.6,38.1 132.1,47 	"/>
	<polygon class="st9" points="123,43 112.2,36.8 112.2,38.2 123,44.5 	"/>
	<polygon class="st11" points="134.5,49.6 124.3,43.8 124.3,45.3 134.5,51.1 	"/>
	<polygon class="st9" points="135.8,50.4 135.8,51.9 143.6,56.4 143.6,54.9 	"/>
	<polygon class="st11" points="107.1,36.6 107.1,38 115.3,42.8 115.3,41.3 	"/>
	<polygon class="st9" points="140.4,55.8 116.6,42 116.6,43.5 140.4,57.3 	"/>
	<polygon class="st9" points="126.8,56.1 111.2,47.1 111.2,48.6 126.8,57.5 	"/>
	<polygon class="st9" points="140.4,63.9 128.1,56.8 128.1,58.3 140.4,65.4 	"/>
	<polygon class="st9" points="139.1,71.3 123.7,62.4 123.7,63.9 139.1,72.8 	"/>
	<polygon class="st10" points="130.7,69.2 130.7,70.7 139.1,75.5 139.1,74 	"/>
	<polygon class="st9" points="108.1,56.1 105.1,54.4 105.1,55.9 108.1,57.6 	"/>
	<polygon class="st9" points="113.7,59.4 113.7,60.9 129.4,69.9 129.4,68.4 	"/>
	<polygon class="st9" points="112.5,58.7 109.4,56.9 109.4,58.4 112.5,60.2 	"/>
	<polygon class="st9" points="126.5,69.5 109.4,59.6 109.4,61.1 126.5,71 	"/>
	<polygon class="st9" points="146.3,53.8 146.3,54.2 148.1,55.2 148.1,54.8 	"/>
	<polygon class="st9" points="146.3,54.5 146.3,54.9 148.1,55.9 148.1,55.5 	"/>
	<polygon class="st9" points="146.3,55.3 146.3,55.7 148.1,56.7 148.1,56.3 	"/>
	<polygon class="st9" points="159.3,63.9 159.3,63.5 148.7,57.4 148.7,57.8 	"/>
	<polygon class="st9" points="146.3,56 146.3,56.4 148.1,57.4 148.1,57 	"/>
	<polygon class="st9" points="146.3,56.8 146.3,57.2 148.1,58.2 148.1,57.8 	"/>
	<polygon class="st9" points="159.3,64.7 159.3,64.3 148.7,58.1 148.7,58.5 	"/>
	<polygon class="st9" points="146.3,59 146.3,59.4 148.1,60.4 148.1,60 	"/>
	<polygon class="st9" points="146.3,59.8 146.3,60.2 148.1,61.2 148.1,60.8 	"/>
	<polygon class="st9" points="146.3,62.8 146.3,63.2 148.1,64.2 148.1,63.8 	"/>
	<polygon class="st9" points="146.3,63.5 146.3,63.9 148.1,64.9 148.1,64.5 	"/>
	<polygon class="st9" points="155.4,68.7 148.7,64.9 148.7,65.3 155.4,69.1 	"/>
	<polygon class="st9" points="155.8,68.9 155.8,69.4 159.3,71.4 159.3,71 	"/>
	<polygon class="st9" points="152.1,66.1 148.7,64.1 148.7,64.5 152.1,66.5 	"/>
	<polygon class="st9" points="152.4,66.3 152.4,66.7 159.3,70.7 159.3,70.3 	"/>
	<polygon class="st9" points="158.4,67.5 158.4,67.9 159.3,68.4 159.3,68 	"/>
	<polygon class="st9" points="153.5,63.9 148.7,61.1 148.7,61.5 153.5,64.3 	"/>
	<polygon class="st9" points="151.5,56.8 148.7,55.1 148.7,55.6 151.5,57.2 	"/>
	<polygon class="st9" points="156.2,59.4 151.9,57 151.9,57.4 156.2,59.8 	"/>
	<polygon class="st9" points="153.7,58.8 150.7,57 150.7,57.4 153.7,59.2 	"/>
	<polygon class="st9" points="156.8,60.6 154,58.9 154,59.4 156.8,61 	"/>
	<polygon class="st9" points="157.2,60.8 157.2,61.2 159.3,62.4 159.3,62 	"/>
	<polygon class="st9" points="149.3,57 149.3,57.4 151.5,58.7 151.5,58.3 	"/>
	<polygon class="st9" points="158.4,62.3 151.9,58.5 151.9,58.9 158.4,62.7 	"/>
	<polygon class="st9" points="154.7,62.3 150.4,59.9 150.4,60.3 154.7,62.7 	"/>
	<polygon class="st9" points="158.4,64.5 155,62.5 155,62.9 158.4,64.9 	"/>
	<polygon class="st9" points="158.1,66.5 153.8,64.1 153.8,64.5 158.1,66.9 	"/>
	<polygon class="st9" points="155.8,65.9 155.8,66.4 158.1,67.7 158.1,67.3 	"/>
	<polygon class="st9" points="149.5,62.4 148.7,61.9 148.7,62.3 149.5,62.8 	"/>
	<polygon class="st9" points="151.1,63.3 151.1,63.7 155.4,66.2 155.4,65.7 	"/>
	<polygon class="st9" points="150.8,63.1 149.9,62.6 149.9,63 150.8,63.5 	"/>
	<polygon class="st9" points="154.6,66 149.9,63.3 149.9,63.7 154.6,66.4 	"/>
	<polygon class="st9" points="146.3,66.4 146.3,66.9 148.1,67.9 148.1,67.4 	"/>
	<polygon class="st9" points="146.3,67.2 146.3,67.6 148.1,68.6 148.1,68.2 	"/>
	<polygon class="st9" points="146.3,67.9 146.3,68.4 148.1,69.3 148.1,68.9 	"/>
	<polygon class="st9" points="159.3,76.6 159.3,76.2 148.7,70.1 148.7,70.5 	"/>
	<polygon class="st9" points="146.3,68.7 146.3,69.1 148.1,70.1 148.1,69.7 	"/>
	<polygon class="st9" points="146.3,69.4 146.3,69.9 148.1,70.8 148.1,70.4 	"/>
	<polygon class="st9" points="159.3,77.3 159.3,76.9 148.7,70.8 148.7,71.2 	"/>
	<polygon class="st9" points="146.3,71.7 146.3,72.1 148.1,73.1 148.1,72.7 	"/>
	<polygon class="st9" points="146.3,72.4 146.3,72.8 148.1,73.8 148.1,73.4 	"/>
	<polygon class="st9" points="146.3,75.4 146.3,75.8 148.1,76.8 148.1,76.4 	"/>
	<polygon class="st9" points="146.3,76.2 146.3,76.6 148.1,77.6 148.1,77.2 	"/>
	<polygon class="st9" points="155.4,81.4 148.7,77.5 148.7,77.9 155.4,81.8 	"/>
	<polygon class="st9" points="155.8,81.6 155.8,82 159.3,84.1 159.3,83.7 	"/>
	<polygon class="st9" points="152.1,78.7 148.7,76.8 148.7,77.2 152.1,79.1 	"/>
	<polygon class="st9" points="152.4,78.9 152.4,79.3 159.3,83.3 159.3,82.9 	"/>
	<polygon class="st9" points="158.4,80.1 158.4,80.6 159.3,81.1 159.3,80.7 	"/>
	<polygon class="st9" points="153.5,76.5 148.7,73.8 148.7,74.2 153.5,77 	"/>
	<polygon class="st9" points="151.5,69.4 148.7,67.8 148.7,68.2 151.5,69.8 	"/>
	<polygon class="st9" points="156.2,72.1 151.9,69.6 151.9,70 156.2,72.5 	"/>
	<polygon class="st9" points="153.7,71.4 150.7,69.7 150.7,70.1 153.7,71.8 	"/>
	<polygon class="st9" points="156.8,73.2 154,71.6 154,72 156.8,73.6 	"/>
	<polygon class="st9" points="157.2,73.4 157.2,73.8 159.3,75.1 159.3,74.7 	"/>
	<polygon class="st9" points="149.3,69.6 149.3,70 151.5,71.3 151.5,70.9 	"/>
	<polygon class="st9" points="158.4,74.9 151.9,71.1 151.9,71.5 158.4,75.3 	"/>
	<polygon class="st9" points="154.7,75 150.4,72.5 150.4,72.9 154.7,75.4 	"/>
	<polygon class="st9" points="158.4,77.2 155,75.2 155,75.6 158.4,77.6 	"/>
	<polygon class="st9" points="158.1,79.2 153.8,76.8 153.8,77.2 158.1,79.6 	"/>
	<polygon class="st9" points="155.8,78.6 155.8,79 158.1,80.4 158.1,79.9 	"/>
	<polygon class="st9" points="149.5,75 148.7,74.5 148.7,74.9 149.5,75.4 	"/>
	<polygon class="st9" points="151.1,75.9 151.1,76.3 155.4,78.8 155.4,78.4 	"/>
	<polygon class="st9" points="150.8,75.7 149.9,75.2 149.9,75.6 150.8,76.1 	"/>
	<polygon class="st9" points="154.6,78.7 149.9,76 149.9,76.4 154.6,79.1 	"/>
	<polygon class="st9" points="146.3,79.1 146.3,79.5 148.1,80.5 148.1,80.1 	"/>
	<polygon class="st9" points="146.3,79.9 146.3,80.3 148.1,81.3 148.1,80.9 	"/>
	<polygon class="st9" points="146.3,80.6 146.3,81 148.1,82 148.1,81.6 	"/>
	<polygon class="st9" points="159.3,89.3 159.3,88.8 148.7,82.7 148.7,83.1 	"/>
	<polygon class="st9" points="146.3,81.4 146.3,81.8 148.1,82.8 148.1,82.4 	"/>
	<polygon class="st9" points="146.3,82.1 146.3,82.5 148.1,83.5 148.1,83.1 	"/>
	<polygon class="st9" points="159.3,90 159.3,89.6 148.7,83.5 148.7,83.9 	"/>
	<polygon class="st9" points="146.3,84.4 146.3,84.8 148.1,85.7 148.1,85.3 	"/>
	<polygon class="st9" points="146.3,85.1 146.3,85.5 148.1,86.5 148.1,86.1 	"/>
	<polygon class="st9" points="146.3,88.1 146.3,88.5 148.1,89.5 148.1,89.1 	"/>
	<polygon class="st9" points="146.3,88.8 146.3,89.2 148.1,90.2 148.1,89.8 	"/>
	<polygon class="st9" points="155.4,94.1 148.7,90.2 148.7,90.6 155.4,94.5 	"/>
	<polygon class="st9" points="155.8,94.3 155.8,94.7 159.3,96.7 159.3,96.3 	"/>
	<polygon class="st9" points="152.1,91.4 148.7,89.5 148.7,89.9 152.1,91.8 	"/>
	<polygon class="st9" points="152.4,91.6 152.4,92 159.3,96 159.3,95.6 	"/>
	<polygon class="st9" points="158.4,92.8 158.4,93.2 159.3,93.7 159.3,93.3 	"/>
	<polygon class="st9" points="153.5,89.2 148.7,86.5 148.7,86.9 153.5,89.6 	"/>
	<polygon class="st9" points="151.5,82.1 148.7,80.5 148.7,80.9 151.5,82.5 	"/>
	<polygon class="st9" points="156.2,84.8 151.9,82.3 151.9,82.7 156.2,85.2 	"/>
	<polygon class="st9" points="153.7,84.1 150.7,82.3 150.7,82.8 153.7,84.5 	"/>
	<polygon class="st9" points="156.8,85.9 154,84.3 154,84.7 156.8,86.3 	"/>
	<polygon class="st9" points="157.2,86.1 157.2,86.5 159.3,87.8 159.3,87.4 	"/>
	<polygon class="st9" points="149.3,82.3 149.3,82.7 151.5,84 151.5,83.6 	"/>
	<polygon class="st9" points="158.4,87.6 151.9,83.8 151.9,84.2 158.4,88 	"/>
	<polygon class="st9" points="154.7,87.7 150.4,85.2 150.4,85.6 154.7,88.1 	"/>
	<polygon class="st9" points="158.4,89.8 155,87.9 155,88.3 158.4,90.2 	"/>
	<polygon class="st9" points="158.1,91.9 153.8,89.4 153.8,89.8 158.1,92.3 	"/>
	<polygon class="st9" points="155.8,91.3 155.8,91.7 158.1,93 158.1,92.6 	"/>
	<polygon class="st9" points="149.5,87.7 148.7,87.2 148.7,87.6 149.5,88.1 	"/>
	<polygon class="st9" points="151.1,88.6 151.1,89 155.4,91.5 155.4,91.1 	"/>
	<polygon class="st9" points="150.8,88.4 149.9,87.9 149.9,88.3 150.8,88.8 	"/>
	<polygon class="st9" points="154.6,91.4 149.9,88.6 149.9,89 154.6,91.8 	"/>
	<polygon class="st9" points="146.3,91.8 146.3,92.2 148.1,93.2 148.1,92.8 	"/>
	<polygon class="st9" points="146.3,92.5 146.3,92.9 148.1,93.9 148.1,93.5 	"/>
	<polygon class="st9" points="146.3,93.3 146.3,93.7 148.1,94.7 148.1,94.3 	"/>
	<polygon class="st9" points="159.3,101.9 159.3,101.5 148.7,95.4 148.7,95.8 	"/>
	<polygon class="st9" points="146.3,94 146.3,94.4 148.1,95.4 148.1,95 	"/>
	<polygon class="st9" points="146.3,94.8 146.3,95.2 148.1,96.2 148.1,95.8 	"/>
	<polygon class="st9" points="159.3,102.7 159.3,102.3 148.7,96.1 148.7,96.5 	"/>
	<polygon class="st9" points="146.3,97 146.3,97.4 148.1,98.4 148.1,98 	"/>
	<polygon class="st9" points="146.3,97.8 146.3,98.2 148.1,99.2 148.1,98.8 	"/>
	<polygon class="st9" points="158.4,105.5 158.4,105.9 159.3,106.4 159.3,106 	"/>
	<polygon class="st9" points="153.5,101.9 148.7,99.1 148.7,99.5 153.5,102.3 	"/>
	<polygon class="st9" points="151.5,94.8 148.7,93.1 148.7,93.5 151.5,95.2 	"/>
	<polygon class="st9" points="156.2,97.4 151.9,95 151.9,95.4 156.2,97.8 	"/>
	<polygon class="st9" points="153.7,96.7 150.7,95 150.7,95.4 153.7,97.1 	"/>
	<polygon class="st9" points="156.8,98.6 154,96.9 154,97.4 156.8,99 	"/>
	<polygon class="st9" points="157.2,98.8 157.2,99.2 159.3,100.4 159.3,100 	"/>
	<polygon class="st9" points="149.3,95 149.3,95.4 151.5,96.7 151.5,96.3 	"/>
	<polygon class="st9" points="158.4,100.2 151.9,96.5 151.9,96.9 158.4,100.7 	"/>
	<polygon class="st9" points="154.7,100.3 150.4,97.9 150.4,98.3 154.7,100.7 	"/>
	<polygon class="st9" points="158.4,102.5 155,100.5 155,100.9 158.4,102.9 	"/>
	<polygon class="st9" points="158.1,104.5 153.8,102.1 153.8,102.5 158.1,104.9 	"/>
	<polygon class="st9" points="155.8,103.9 155.8,104.4 158.1,105.7 158.1,105.3 	"/>
	<polygon class="st9" points="149.5,100.4 148.7,99.9 148.7,100.3 149.5,100.8 	"/>
	<polygon class="st9" points="151.1,101.2 151.1,101.7 155.4,104.1 155.4,103.7 	"/>
	<polygon class="st9" points="150.8,101 149.9,100.5 149.9,101 150.8,101.5 	"/>
	<polygon class="st9" points="154.6,104 149.9,101.3 149.9,101.7 154.6,104.4 	"/>
	<path class="st10" d="M92.5,22.7l-2.1-1.2c-0.1,0-0.2,0-0.2,0c0,0,0,0.1,0,0.1v2.5c0,0.1,0.1,0.2,0.2,0.3l2.1,1.2
		c0.1,0,0.2,0,0.2-0.1c0,0,0,0,0-0.1V23C92.7,22.9,92.6,22.8,92.5,22.7z"/>
	<path class="st10" d="M92.5,26.4l-2.1-1.2c-0.1,0-0.2,0-0.2,0c0,0,0,0.1,0,0.1v2.5c0,0.1,0.1,0.2,0.2,0.3l2.1,1.2
		c0.1,0,0.2,0,0.2-0.1c0,0,0,0,0-0.1v-2.4C92.7,26.6,92.6,26.5,92.5,26.4z"/>
	<path class="st10" d="M92.5,30.1l-2.1-1.2c-0.1,0-0.2,0-0.2,0c0,0,0,0.1,0,0.1v2.5c0,0.1,0.1,0.2,0.2,0.3l2.1,1.2
		c0.1,0,0.1,0,0.2,0c0,0,0-0.1,0-0.1v-2.5C92.7,30.3,92.6,30.1,92.5,30.1z"/>
	<path class="st10" d="M92.5,33.8l-2.1-1.2c-0.1,0-0.2,0-0.2,0c0,0,0,0.1,0,0.1v2.5c0,0.1,0.1,0.2,0.2,0.3l2.1,1.2
		c0.1,0,0.2,0,0.2-0.1c0,0,0,0,0-0.1v-2.5C92.7,33.9,92.6,33.8,92.5,33.8z"/>
	<path class="st10" d="M92.5,37.4l-2.1-1.2c-0.1,0-0.2,0-0.2,0c0,0,0,0.1,0,0.1v2.5c0,0.1,0.1,0.2,0.2,0.3l2.1,1.2
		c0.1,0,0.2,0,0.2-0.1c0,0,0,0,0-0.1v-2.5C92.7,37.6,92.6,37.5,92.5,37.4z"/>
	<path class="st10" d="M92.5,41.1l-2.1-1.2c-0.1,0-0.2,0-0.2,0c0,0,0,0.1,0,0.1v2.5c0,0.1,0.1,0.2,0.2,0.3l2.1,1.2
		c0.1,0,0.2,0,0.2-0.1c0,0,0,0,0-0.1v-2.5C92.7,41.3,92.6,41.2,92.5,41.1z"/>
	<path class="st10" d="M92.5,44.8l-2.1-1.2c-0.1,0-0.2,0-0.2,0c0,0,0,0.1,0,0.1v2.5c0,0.1,0.1,0.2,0.2,0.3l2.1,1.2
		c0.1,0,0.2,0,0.2-0.1c0,0,0,0,0-0.1v-2.5C92.7,45,92.6,44.9,92.5,44.8z"/>
	<path class="st10" d="M92.5,48.5l-2.1-1.2c-0.1,0-0.2,0-0.2,0.1c0,0,0,0,0,0.1v2.5c0,0.1,0.1,0.2,0.2,0.3l2.1,1.2
		c0.1,0,0.2,0,0.2-0.1c0,0,0,0,0-0.1v-2.4C92.7,48.7,92.6,48.6,92.5,48.5z"/>
	<path class="st10" d="M92.5,52.2L90.4,51c-0.1,0-0.2,0-0.2,0c0,0,0,0.1,0,0.1v2.5c0,0.1,0.1,0.2,0.2,0.3l2.1,1.2
		c0.1,0,0.2,0,0.2-0.1c0,0,0,0,0-0.1v-2.5C92.7,52.4,92.6,52.2,92.5,52.2z"/>
	<path class="st10" d="M92.5,55.9l-2.1-1.2c-0.1,0-0.2,0-0.2,0c0,0,0,0.1,0,0.1v2.5c0,0.1,0.1,0.2,0.2,0.3l2.1,1.2
		c0.1,0,0.1,0,0.2,0c0,0,0-0.1,0-0.1v-2.5C92.7,56,92.6,55.9,92.5,55.9z"/>
	<path class="st10" d="M92.5,59.6l-2.1-1.2c-0.1,0-0.2,0-0.2,0c0,0,0,0.1,0,0.1V61c0,0.1,0.1,0.2,0.2,0.3l2.1,1.2
		c0.1,0,0.2,0,0.2-0.1c0,0,0,0,0-0.1v-2.4C92.7,59.8,92.6,59.6,92.5,59.6z"/>
	<path class="st10" d="M92.5,63.2l-2.1-1.2c-0.1,0-0.2,0-0.2,0c0,0,0,0.1,0,0.1v2.5c0,0.1,0.1,0.2,0.2,0.3l2.1,1.2
		c0.1,0,0.2,0,0.2-0.1c0,0,0,0,0-0.1v-2.4C92.7,63.4,92.6,63.3,92.5,63.2z"/>
	<path class="st3" d="M133.7,133.5c-2.6-0.9-5.4-0.5-7.7,1.2c-4.2,2.8-6.9,6.6-5.3,8c1.7,1.4,5,2.9,7.1,2.2
		C130,144.1,140.5,137.9,133.7,133.5z"/>
	<polygon class="st11" points="221,117.3 188.3,135.9 167.5,123.8 200.2,105.3 	"/>
	<polygon class="st12" points="194.7,135.4 194.7,136.1 227.4,117.4 227.4,116.9 	"/>
	<polygon class="st13" points="227.4,116.9 194.7,135.4 173.9,123.4 206.6,104.8 	"/>
	<polygon class="st14" points="194.7,135.4 194.7,136.1 173.9,124.1 173.9,123.4 	"/>
	<polygon class="st15" points="206.4,106.8 219,114.1 218.4,114.4 205.8,107.1 	"/>
	<polygon class="st15" points="205.1,107.5 217.7,114.8 217.1,115.1 204.5,107.9 	"/>
	<polygon class="st15" points="202,109.3 219.4,119.3 218.8,119.6 201.5,109.6 	"/>
	<polygon class="st15" points="200.8,110 218.2,120 217.6,120.3 200.3,110.3 	"/>
	<polygon class="st15" points="199.6,110.6 217,120.6 216.4,121 199.1,110.9 	"/>
	<polygon class="st15" points="198.4,111.3 215.8,121.3 215.2,121.6 197.9,111.6 	"/>
	<polygon class="st15" points="197.2,112 214.6,122 214,122.3 196.7,112.3 	"/>
	<polygon class="st15" points="196,112.7 213.4,122.7 212.8,123 195.5,113 	"/>
	<polygon class="st15" points="194.8,113.4 212.2,123.4 211.6,123.7 194.3,113.7 	"/>
	<polygon class="st15" points="193.6,114 211,124 210.4,124.4 193.1,114.4 	"/>
	<polygon class="st15" points="192.4,114.7 209.8,124.7 209.2,125 191.9,115 	"/>
	<polygon class="st15" points="191.2,115.4 208.6,125.4 208,125.7 190.7,115.7 	"/>
	<polygon class="st15" points="190,116.1 207.4,126.1 206.8,126.4 189.4,116.4 	"/>
	<polygon class="st15" points="188.8,116.8 206.2,126.8 205.6,127.1 188.3,117.1 	"/>
	<polygon class="st15" points="187.6,117.5 204.9,127.5 204.4,127.8 187,117.8 	"/>
	<polygon class="st15" points="186.4,118.1 203.8,128.1 203.2,128.5 185.8,118.4 	"/>
	<polygon class="st15" points="185.2,118.8 202.5,128.8 202,129.1 184.6,119.1 	"/>
	<path class="st1" d="M171.1,128.1H168v3.3h3.1c1.1,0,2.1,0.9,2.1,2.1v5.4c0,1.1-0.9,2.1-2.1,2.1h-4.5v3.3h4.5c3,0,5.4-2.4,5.4-5.4
		v-5.3C176.4,130.6,174,128.1,171.1,128.1C171.1,128.1,171.1,128.1,171.1,128.1z"/>
	<path class="st2" d="M169.9,126.3v18.6c0,2.9-4.3,5.2-9.6,5.2c-5.3,0-9.6-2.3-9.6-5.2v-18.6H169.9z"/>
	<path class="st16" d="M150.7,126.3c0,2.9,4.3,5.2,9.6,5.2s9.6-2.3,9.6-5.2s-4.3-5.3-9.6-5.3C155,121,150.7,123.4,150.7,126.3z"/>
	<path class="st1" d="M152.6,126.2c0,2.3,3.4,4.1,7.7,4.1c4.3,0,7.7-1.8,7.7-4.1s-3.4-4.1-7.7-4.1
		C156.1,122.2,152.6,124,152.6,126.2z"/>
	<path class="st17" d="M160.3,124.8c-3.4,0-6.2,1.2-7.3,2.8c1.1,1.6,3.9,2.8,7.3,2.8s6.2-1.2,7.3-2.8
		C166.5,126,163.7,124.8,160.3,124.8z"/>
	<path class="st1" d="M163.9,131.1v18.6c1.7-0.3,3.2-1,4.5-2.1V129C167.1,130.1,165.6,130.8,163.9,131.1z"/>
</g>
<g id="human" class="human" style="transform: translateY(100%);">
	<g id="arms" class="arms">
		<path class="st18" d="M75.2,107.3c0,0,2.8,0.7,3.8,0.8s4.7,0.9,6.2,0.4s-1.4-1.5-2-2s-0.7-1.8,0.9-2.3c1.5-0.5,5-0.2,6.8-0.5
			S89,97.9,86,97.4c-2.8-0.6-5.6-0.2-8.1,1.1c-2.5,1.2-3.9,3.4-5.1,3.8L75.2,107.3z"/>
		<path class="st11" d="M75.6,99.8l-19.2,4.8l-1,12.2l22.7-7.8C78.5,104.7,75.6,99.8,75.6,99.8z"/>
		<path class="st18" d="M101.1,124c0,0,2.1-2.2,3-2.8c0.8-0.6,3.7-3.3,5.3-3.7c1.6-0.4-1.1,2.4-1.5,3.3s1.7-0.7,3.2-1.3
			c1.7-0.6,3.5-0.5,5.1,0.2c3.7,1.4,3.5,8.7,0.5,7.9c-5-1.4-7.2,2.5-10.2,3.3c-1.4,0.4-2.8,0.6-4.2,0.8L101.1,124z"/>
		<path class="st11" d="M68.2,106.8l16.2,21.5l16.9-5c0,0,3.6,4.6,2.4,9.4l-22.5,8.8l-18.3-20.1C62.9,121.3,56.8,108.5,68.2,106.8z"
			/>
	</g>
	<path class="st19" d="M83.5,201.2c-5.1,0-3.4-3.8-3.4-3.8c-7.6-2.3-11.3-1-11.3-1c-1.1,4-1.5,8.2-1.2,12.4c0,0.8,0.6,1.3,1.3,1.6
		c4.1,1.5,7.8,2.5,15.4,1.8c5.6-0.6,11.5-5.7,10.2-11.1C93.5,197.7,88.6,201.2,83.5,201.2z"/>
	<path class="st20" d="M81.3,153.2c-1.5-1.9-4.1-3.6-8.3-2.5l-45.7,8.8l1.7,11.7c4.7,5.6,12.3,7.9,19.2,5.7c7.2-2,14-5.1,20.2-9.2
		l-1.6,32.4c4.6,1.2,9.4,0.6,13.6-1.6c1.1-0.6,2.1-31.9,2.4-39.9C83.1,156.7,82.5,154.7,81.3,153.2z"/>
	<path class="st17" d="M105.4,210.6c-5.3,0-3.6-4-3.6-4c-7.9-2.4-11.7-1.1-11.7-1.1c-1.2,4.2-1.6,8.5-1.3,12.8
		c0,0.8,0.6,1.5,1.4,1.6c4.2,1.6,8.1,2.6,16,1.9c5.8-0.6,12-5.9,10.6-11.5C115.8,207,110.8,210.6,105.4,210.6z"/>
	<polygon class="st2" points="53.5,197.7 14.2,175 14.2,180.6 53.5,203.2 	"/>
	<polygon class="st16" points="49.9,154.6 14.2,175 53.5,197.7 89.2,177.2 	"/>
	<polygon class="st1" points="89.2,177.2 53.5,197.7 53.5,203.2 89.2,182.5 	"/>
	<path class="st21" d="M103.1,160.7c-1.5-2-4.1-3.7-8.6-2.6L47,167.3l1.8,12.2c4.9,5.8,12.7,8.2,20,6c7.5-2.1,14.5-5.3,21-9.6
		l-1.6,33.6c4.7,1.3,9.8,0.7,14.1-1.7c1.1-0.7,2.2-33.1,2.5-41.5C105,164.3,104.4,162.3,103.1,160.7z"/>
	<path class="st22" d="M65.6,88.7c-0.8,8-6.7,13.9-13.1,13.3c-6.5-0.6-11.1-7.6-10.3-15.6c0.8-8,6.7-13.9,13.1-13.3
		S66.4,80.7,65.6,88.7z"/>
	<path class="st11" d="M28.1,104.9c0,0-5.3,6.7,0,15.9c0,0,3.7,5.1,13.9,0.1L28.1,104.9z"/>
	<path class="st23" d="M43.9,97.1c0,0,8.3-0.6,14.8,4c0.4,0.9,1,1.7,1.8,2.2c1.3,0.9,7.8,3.5,7.8,3.5s-2.8,37.8,0.4,56.2
		c0,0-14,10.9-35.9,0c0,0-3.2-46.4-4.6-58C28.1,104.9,31.8,100.4,43.9,97.1z"/>
	<polygon class="st2" points="40.3,159.5 1.1,136.9 14.2,175.1 53.5,197.7 	"/>
	<polygon class="st1" points="44.6,157 40.3,159.5 53.5,197.7 57.9,195.2 	"/>
	<path class="st17" d="M59.2,66.3c0,0,1.2,3-4.7,3.8c-6,0.8-13.3,3.8-15.3,10.1c-1.2,4,0.2,8.3,2.2,11.9c0.7,1.2,1.5,2.4,2.4,3.5
		c3,0.6,6.1,0,8.8-1.5c2-1.5,3.7-3.5,4.7-5.8c0,0,3.6,1.5,4.7-1.5c0.8-2.2,3.4-2.8,4.8-3.9C66.8,82.8,74.8,69.7,59.2,66.3z"/>
</g>
</svg>
